<svg width="49" height="49" viewBox="0 0 49 49" fill="none" xmlns="http://www.w3.org/2000/svg">
<rect x="0.666504" y="0.5" width="48" height="48" rx="24" fill="#E7E3FD"/>
<circle cx="22.6665" cy="18.5" r="4" stroke="#745AF2" stroke-width="1.5"/>
<path d="M30.6665 30C30.6665 32.4853 30.6665 34.5 22.6665 34.5C14.6665 34.5 14.6665 32.4853 14.6665 30C14.6665 27.5147 18.2482 25.5 22.6665 25.5C27.0848 25.5 30.6665 27.5147 30.6665 30Z" stroke="#745AF2" stroke-width="1.5"/>
<path d="M31.6665 14.5C31.6665 14.5 33.6665 15.7 33.6665 18.5C33.6665 21.3 31.6665 22.5 31.6665 22.5" stroke="#745AF2" stroke-width="1.5" stroke-linecap="round"/>
<path d="M29.6665 16.5C29.6665 16.5 30.6665 17.1 30.6665 18.5C30.6665 19.9 29.6665 20.5 29.6665 20.5" stroke="#745AF2" stroke-width="1.5" stroke-linecap="round"/>
</svg>
